<svg width="30" height="30" viewBox="0 0 30 30" fill="none" xmlns="http://www.w3.org/2000/svg">
<path opacity="0.75" d="M20 30C19.0833 30 18.2989 29.6739 17.6467 29.0217C16.9944 28.3694 16.6678 27.5844 16.6667 26.6667V20C16.6667 19.0833 16.9933 18.2989 17.6467 17.6467C18.3 16.9944 19.0844 16.6678 20 16.6667H26.6667C27.5833 16.6667 28.3683 16.9933 29.0217 17.6467C29.675 18.3 30.0011 19.0844 30 20V26.6667C30 27.5833 29.6739 28.3683 29.0217 29.0217C28.3694 29.675 27.5844 30.0011 26.6667 30H20ZM20 13.3333C19.0833 13.3333 18.2989 13.0072 17.6467 12.355C16.9944 11.7028 16.6678 10.9178 16.6667 10V3.33333C16.6667 2.41667 16.9933 1.63222 17.6467 0.98C18.3 0.327778 19.0844 0.00111111 20 0H26.6667C27.5833 0 28.3683 0.326667 29.0217 0.98C29.675 1.63333 30.0011 2.41778 30 3.33333V10C30 10.9167 29.6739 11.7017 29.0217 12.355C28.3694 13.0083 27.5844 13.3344 26.6667 13.3333H20ZM3.33333 13.3333C2.41667 13.3333 1.63222 13.0072 0.98 12.355C0.327778 11.7028 0.00111111 10.9178 0 10V3.33333C0 2.41667 0.326667 1.63222 0.98 0.98C1.63333 0.327778 2.41778 0.00111111 3.33333 0H10C10.9167 0 11.7017 0.326667 12.355 0.98C13.0083 1.63333 13.3344 2.41778 13.3333 3.33333V10C13.3333 10.9167 13.0072 11.7017 12.355 12.355C11.7028 13.0083 10.9178 13.3344 10 13.3333H3.33333ZM3.33333 30C2.41667 30 1.63222 29.6739 0.98 29.0217C0.327778 28.3694 0.00111111 27.5844 0 26.6667V20C0 19.0833 0.326667 18.2989 0.98 17.6467C1.63333 16.9944 2.41778 16.6678 3.33333 16.6667H10C10.9167 16.6667 11.7017 16.9933 12.355 17.6467C13.0083 18.3 13.3344 19.0844 13.3333 20V26.6667C13.3333 27.5833 13.0072 28.3683 12.355 29.0217C11.7028 29.675 10.9178 30.0011 10 30H3.33333Z" fill="white"/>
</svg>
