<svg width="80" height="83" viewBox="0 0 80 83" fill="none" xmlns="http://www.w3.org/2000/svg">
<rect x="-29" y="58.8528" width="120" height="34" transform="rotate(-45 -29 58.8528)" fill="white"/>
<path d="M11.1538 42.4112L12.6504 43.9078L8.02002 48.5381L6.52345 47.0415L11.1538 42.4112ZM22.6719 42.9561C21.9487 43.6793 21.182 44.1982 20.3718 44.5129C19.5649 44.8243 18.7781 44.9214 18.0114 44.8042C17.2447 44.687 16.5617 44.3489 15.9624 43.7897L17.8507 41.9014C18.1453 42.1626 18.4801 42.3133 18.8551 42.3534C19.2268 42.3903 19.6084 42.3266 20.0002 42.1626C20.3919 41.9985 20.7602 41.7441 21.105 41.3992C21.4733 41.031 21.7361 40.6409 21.8935 40.2291C22.0475 39.8139 22.0893 39.4105 22.019 39.0188C21.9487 38.6271 21.7612 38.2822 21.4566 37.9842C21.1485 37.6695 20.7936 37.4753 20.3919 37.4017C19.9901 37.328 19.5666 37.3799 19.1213 37.5574C18.6794 37.7315 18.2408 38.0361 17.8055 38.4714L16.8965 39.3804L15.4602 37.9441L16.3692 37.0351C16.7274 36.6768 16.9786 36.3018 17.1225 35.9101C17.2698 35.5151 17.3083 35.1284 17.238 34.75C17.1644 34.3683 16.9769 34.0302 16.6756 33.7356C16.3876 33.4409 16.0696 33.2534 15.7214 33.1731C15.3732 33.086 15.0183 33.1028 14.6567 33.2233C14.2984 33.3405 13.9586 33.5598 13.6372 33.8812C13.3225 34.1959 13.0881 34.5441 12.9341 34.9258C12.7801 35.3075 12.7265 35.6858 12.7734 36.0608C12.8169 36.4324 12.9776 36.7672 13.2555 37.0652L11.4626 38.8581C10.9002 38.2688 10.5604 37.5975 10.4432 36.8442C10.326 36.0842 10.413 35.3142 10.7043 34.5341C10.9922 33.7506 11.4693 33.0258 12.1356 32.3595C12.822 31.6732 13.5468 31.2061 14.3102 30.9584C15.0735 30.7039 15.8101 30.6537 16.5199 30.8077C17.2297 30.9617 17.8457 31.2999 18.368 31.8222C18.9505 32.398 19.2653 33.0542 19.3121 33.7908C19.3624 34.524 19.1698 35.2288 18.7346 35.9051L18.815 35.9855C19.6386 35.3627 20.4605 35.0765 21.2808 35.1267C22.1011 35.1702 22.8309 35.5151 23.4704 36.1612C24.0463 36.7371 24.3978 37.4167 24.525 38.2002C24.6523 38.9769 24.5585 39.7805 24.2438 40.6108C23.9324 41.4377 23.4085 42.2195 22.6719 42.9561ZM32.0494 33.6891C31.2224 34.5161 30.3033 35.0166 29.2922 35.1907C28.2811 35.3581 27.2198 35.2041 26.1082 34.7287C24.9967 34.2466 23.8801 33.4447 22.7585 32.3231C21.6403 31.1982 20.8451 30.0849 20.373 28.9834C19.901 27.8752 19.752 26.8189 19.9261 25.8145C20.1035 24.8068 20.6041 23.8911 21.4277 23.0674C22.2513 22.2438 23.167 21.7433 24.1748 21.5658C25.1825 21.3884 26.2388 21.5374 27.3437 22.0128C28.4519 22.4849 29.5651 23.28 30.6833 24.3983C31.8083 25.5232 32.6101 26.6432 33.0889 27.7581C33.5677 28.8663 33.72 29.9259 33.5459 30.937C33.3752 31.9448 32.8763 32.8621 32.0494 33.6891ZM30.4774 32.1172C31.1203 31.4744 31.3111 30.6508 31.05 29.6463C30.7888 28.6352 30.0405 27.512 28.8051 26.2765C27.9882 25.4596 27.2164 24.8586 26.4899 24.4736C25.7634 24.0886 25.1038 23.9112 24.5112 23.9413C23.9153 23.9681 23.4047 24.1941 22.9795 24.6193C22.34 25.2587 22.1525 26.0824 22.417 27.0901C22.6782 28.0945 23.4198 29.2111 24.6418 30.4398C25.4587 31.2635 26.2305 31.8711 26.957 32.2628C27.6868 32.6512 28.3498 32.832 28.9457 32.8052C29.5383 32.7751 30.0489 32.5458 30.4774 32.1172ZM41.0552 20.4346L40.5128 19.8922C40.1144 19.4938 39.8315 19.0435 39.6641 18.5413C39.5 18.0358 39.4782 17.5185 39.5988 16.9895C39.7193 16.4605 40.0106 15.965 40.4726 15.503C40.948 15.0275 41.4486 14.7312 41.9742 14.6141C42.4965 14.4935 43.0071 14.5186 43.5059 14.6894C44.0081 14.8568 44.4601 15.1414 44.8619 15.5431L45.4043 16.0855C45.8027 16.4839 46.0856 16.9342 46.253 17.4365C46.4204 17.9387 46.4438 18.4543 46.3233 18.9832C46.2061 19.5089 45.9132 20.0061 45.4445 20.4748C44.9757 20.9435 44.4769 21.2382 43.9479 21.3587C43.4189 21.4792 42.9033 21.4558 42.4011 21.2884C41.9022 21.1176 41.4536 20.833 41.0552 20.4346ZM41.8235 18.5815L42.3659 19.1239C42.6304 19.3884 42.9368 19.5675 43.285 19.6612C43.6332 19.755 43.968 19.6411 44.2894 19.3197C44.6141 18.995 44.728 18.6635 44.6309 18.3254C44.5338 17.9805 44.3513 17.6742 44.0835 17.4063L43.5411 16.8639C43.2732 16.5961 42.9703 16.4103 42.6321 16.3065C42.2906 16.1994 41.9524 16.3132 41.6176 16.648C41.3029 16.9627 41.1924 17.2975 41.2862 17.6524C41.3766 18.0039 41.5557 18.3136 41.8235 18.5815ZM29.9413 19.7767L29.399 19.2344C28.9972 18.8326 28.7143 18.3789 28.5502 17.8734C28.3862 17.3678 28.3661 16.8522 28.49 16.3266C28.6105 15.7976 28.9018 15.3021 29.3638 14.84C29.8359 14.368 30.3347 14.0733 30.8604 13.9562C31.386 13.8323 31.8983 13.8557 32.3971 14.0265C32.896 14.1972 33.3463 14.4835 33.7481 14.8852L34.2904 15.4276C34.6922 15.8294 34.9768 16.2814 35.1442 16.7836C35.3116 17.2791 35.3334 17.7897 35.2095 18.3153C35.0856 18.841 34.791 19.3365 34.3256 19.8018C33.8535 20.2739 33.3547 20.5719 32.829 20.6958C32.3067 20.8163 31.7945 20.7929 31.2923 20.6255C30.7901 20.4581 30.3398 20.1752 29.9413 19.7767ZM30.7198 17.9135L31.2621 18.4559C31.53 18.7238 31.8363 18.9062 32.1812 19.0033C32.526 19.0937 32.8592 18.9782 33.1806 18.6568C33.502 18.3354 33.6141 18.0056 33.517 17.6675C33.42 17.3226 33.2375 17.0163 32.9696 16.7484L32.4273 16.206C32.1594 15.9382 31.8564 15.7524 31.5183 15.6486C31.1768 15.5415 30.8403 15.6536 30.5088 15.9851C30.1908 16.3031 30.0803 16.6379 30.1774 16.9895C30.2745 17.341 30.4553 17.6491 30.7198 17.9135ZM38.3282 27.0186L35.1141 9.6623L36.3696 8.40678L39.5837 25.763L38.3282 27.0186Z" fill="#1C1C1C"/>
</svg>
