<svg width="155" height="53" viewBox="0 0 155 53" fill="none" xmlns="http://www.w3.org/2000/svg">
<path opacity="0.7" d="M51.562 33H50.704V25.3H57.139V33H56.281V26.081H51.562V33ZM61.5598 27.324C62.3591 27.324 63.0265 27.6027 63.5618 28.16C64.1045 28.71 64.3758 29.3957 64.3758 30.217C64.3758 31.0383 64.1081 31.7277 63.5728 32.285C63.0375 32.835 62.3665 33.11 61.5598 33.11C60.6285 33.11 59.8988 32.7397 59.3708 31.999V35.2H58.5458V27.434H59.3708V28.435C59.8988 27.6943 60.6285 27.324 61.5598 27.324ZM61.4498 32.34C62.0438 32.34 62.5388 32.1383 62.9348 31.735C63.3308 31.3317 63.5288 30.8257 63.5288 30.217C63.5288 29.6083 63.3308 29.1023 62.9348 28.699C62.5388 28.2957 62.0438 28.094 61.4498 28.094C60.8631 28.094 60.3681 28.2993 59.9648 28.71C59.5688 29.1133 59.3708 29.6157 59.3708 30.217C59.3708 30.8183 59.5688 31.3243 59.9648 31.735C60.3681 32.1383 60.8631 32.34 61.4498 32.34ZM66.1013 32.285C65.5439 31.7277 65.2653 31.0383 65.2653 30.217C65.2653 29.3957 65.5439 28.71 66.1013 28.16C66.6659 27.6027 67.3626 27.324 68.1913 27.324C69.0199 27.324 69.7129 27.6027 70.2703 28.16C70.8349 28.71 71.1173 29.3957 71.1173 30.217C71.1173 31.0383 70.8349 31.7277 70.2703 32.285C69.7129 32.835 69.0199 33.11 68.1913 33.11C67.3626 33.11 66.6659 32.835 66.1013 32.285ZM66.7063 28.71C66.3103 29.1133 66.1123 29.6157 66.1123 30.217C66.1123 30.8183 66.3103 31.3243 66.7063 31.735C67.1096 32.1383 67.6046 32.34 68.1913 32.34C68.7853 32.34 69.2803 32.1383 69.6763 31.735C70.0723 31.3317 70.2703 30.8257 70.2703 30.217C70.2703 29.6083 70.0723 29.1023 69.6763 28.699C69.2803 28.2957 68.7853 28.094 68.1913 28.094C67.6046 28.094 67.1096 28.2993 66.7063 28.71ZM74.8823 27.324C75.7403 27.324 76.4443 27.6283 76.9943 28.237C77.5517 28.8383 77.7973 29.5827 77.7313 30.47H72.8363C72.895 31.0273 73.1187 31.4857 73.5073 31.845C73.9033 32.197 74.3837 32.373 74.9483 32.373C75.381 32.373 75.766 32.2667 76.1033 32.054C76.4407 31.8413 76.6973 31.5517 76.8733 31.185L77.5773 31.482C77.3427 31.9733 76.9943 32.3693 76.5323 32.67C76.0703 32.9633 75.5387 33.11 74.9373 33.11C74.1087 33.11 73.412 32.835 72.8473 32.285C72.29 31.7277 72.0113 31.0383 72.0113 30.217C72.0113 29.3957 72.2863 28.71 72.8363 28.16C73.3863 27.6027 74.0683 27.324 74.8823 27.324ZM74.8823 28.061C74.3763 28.061 73.9363 28.2223 73.5623 28.545C73.1883 28.8677 72.9537 29.282 72.8583 29.788H76.8953C76.8147 29.2893 76.5873 28.8787 76.2133 28.556C75.8467 28.226 75.403 28.061 74.8823 28.061ZM83.7742 27.434L81.6512 30.162L83.9502 33H82.9382L80.9362 30.591H79.7702V33H78.9452V27.434H79.7702V29.843H80.9362L82.8612 27.434H83.7742ZM87.1545 33H86.3295V28.182H84.3275V27.434H89.1565V28.182H87.1545V33ZM94.0309 32.285C93.4736 31.7277 93.1949 31.0383 93.1949 30.217C93.1949 29.3957 93.4736 28.71 94.0309 28.16C94.5956 27.6027 95.2923 27.324 96.1209 27.324C96.7223 27.324 97.2576 27.4817 97.7269 27.797C98.2036 28.105 98.5556 28.5267 98.7829 29.062L98.0239 29.326C97.8553 28.9447 97.6023 28.644 97.2649 28.424C96.9276 28.204 96.5463 28.094 96.1209 28.094C95.5343 28.094 95.0393 28.2993 94.6359 28.71C94.2399 29.1133 94.0419 29.6157 94.0419 30.217C94.0419 30.8183 94.2399 31.3243 94.6359 31.735C95.0393 32.1383 95.5343 32.34 96.1209 32.34C96.5463 32.34 96.9276 32.23 97.2649 32.01C97.6023 31.79 97.8553 31.4893 98.0239 31.108L98.7829 31.372C98.5556 31.9073 98.2036 32.3327 97.7269 32.648C97.2576 32.956 96.7223 33.11 96.1209 33.11C95.2923 33.11 94.5956 32.835 94.0309 32.285ZM102.511 27.324C103.369 27.324 104.073 27.6283 104.623 28.237C105.181 28.8383 105.426 29.5827 105.36 30.47H100.465C100.524 31.0273 100.748 31.4857 101.136 31.845C101.532 32.197 102.013 32.373 102.577 32.373C103.01 32.373 103.395 32.2667 103.732 32.054C104.07 31.8413 104.326 31.5517 104.502 31.185L105.206 31.482C104.972 31.9733 104.623 32.3693 104.161 32.67C103.699 32.9633 103.168 33.11 102.566 33.11C101.738 33.11 101.041 32.835 100.476 32.285C99.9189 31.7277 99.6403 31.0383 99.6403 30.217C99.6403 29.3957 99.9153 28.71 100.465 28.16C101.015 27.6027 101.697 27.324 102.511 27.324ZM102.511 28.061C102.005 28.061 101.565 28.2223 101.191 28.545C100.817 28.8677 100.583 29.282 100.487 29.788H104.524C104.444 29.2893 104.216 28.8787 103.842 28.556C103.476 28.226 103.032 28.061 102.511 28.061ZM109.588 27.324C110.387 27.324 111.055 27.6027 111.59 28.16C112.133 28.71 112.404 29.3957 112.404 30.217C112.404 31.0383 112.136 31.7277 111.601 32.285C111.066 32.835 110.395 33.11 109.588 33.11C108.657 33.11 107.927 32.7397 107.399 31.999V35.2H106.574V27.434H107.399V28.435C107.927 27.6943 108.657 27.324 109.588 27.324ZM109.478 32.34C110.072 32.34 110.567 32.1383 110.963 31.735C111.359 31.3317 111.557 30.8257 111.557 30.217C111.557 29.6083 111.359 29.1023 110.963 28.699C110.567 28.2957 110.072 28.094 109.478 28.094C108.891 28.094 108.396 28.2993 107.993 28.71C107.597 29.1133 107.399 29.6157 107.399 30.217C107.399 30.8183 107.597 31.3243 107.993 31.735C108.396 32.1383 108.891 32.34 109.478 32.34ZM117.351 30.151C117.659 30.2683 117.893 30.4443 118.055 30.679C118.223 30.9137 118.308 31.185 118.308 31.493C118.308 31.9257 118.143 32.285 117.813 32.571C117.483 32.857 117.061 33 116.548 33H113.589V27.434H116.284C116.797 27.434 117.222 27.577 117.56 27.863C117.897 28.149 118.066 28.5083 118.066 28.941C118.066 29.4763 117.827 29.8797 117.351 30.151ZM116.251 28.149H114.381V29.865H116.251C116.544 29.865 116.782 29.7843 116.966 29.623C117.156 29.4543 117.252 29.2453 117.252 28.996C117.252 28.754 117.156 28.5523 116.966 28.391C116.782 28.2297 116.544 28.149 116.251 28.149ZM114.381 32.285H116.515C116.801 32.285 117.035 32.2043 117.219 32.043C117.409 31.8817 117.505 31.6763 117.505 31.427C117.505 31.185 117.409 30.9833 117.219 30.822C117.035 30.6533 116.801 30.569 116.515 30.569H114.381V32.285ZM122.073 27.324C122.931 27.324 123.635 27.6283 124.185 28.237C124.742 28.8383 124.988 29.5827 124.922 30.47H120.027C120.085 31.0273 120.309 31.4857 120.698 31.845C121.094 32.197 121.574 32.373 122.139 32.373C122.571 32.373 122.956 32.2667 123.294 32.054C123.631 31.8413 123.888 31.5517 124.064 31.185L124.768 31.482C124.533 31.9733 124.185 32.3693 123.723 32.67C123.261 32.9633 122.729 33.11 122.128 33.11C121.299 33.11 120.602 32.835 120.038 32.285C119.48 31.7277 119.202 31.0383 119.202 30.217C119.202 29.3957 119.477 28.71 120.027 28.16C120.577 27.6027 121.259 27.324 122.073 27.324ZM122.073 28.061C121.567 28.061 121.127 28.2223 120.753 28.545C120.379 28.8677 120.144 29.282 120.049 29.788H124.086C124.005 29.2893 123.778 28.8787 123.404 28.556C123.037 28.226 122.593 28.061 122.073 28.061ZM129.15 27.324C129.949 27.324 130.616 27.6027 131.152 28.16C131.694 28.71 131.966 29.3957 131.966 30.217C131.966 31.0383 131.698 31.7277 131.163 32.285C130.627 32.835 129.956 33.11 129.15 33.11C128.218 33.11 127.489 32.7397 126.961 31.999V35.2H126.136V27.434H126.961V28.435C127.489 27.6943 128.218 27.324 129.15 27.324ZM129.04 32.34C129.634 32.34 130.129 32.1383 130.525 31.735C130.921 31.3317 131.119 30.8257 131.119 30.217C131.119 29.6083 130.921 29.1023 130.525 28.699C130.129 28.2957 129.634 28.094 129.04 28.094C128.453 28.094 127.958 28.2993 127.555 28.71C127.159 29.1133 126.961 29.6157 126.961 30.217C126.961 30.8183 127.159 31.3243 127.555 31.735C127.958 32.1383 128.453 32.34 129.04 32.34ZM133.691 32.285C133.134 31.7277 132.855 31.0383 132.855 30.217C132.855 29.3957 133.134 28.71 133.691 28.16C134.256 27.6027 134.952 27.324 135.781 27.324C136.61 27.324 137.303 27.6027 137.86 28.16C138.425 28.71 138.707 29.3957 138.707 30.217C138.707 31.0383 138.425 31.7277 137.86 32.285C137.303 32.835 136.61 33.11 135.781 33.11C134.952 33.11 134.256 32.835 133.691 32.285ZM134.296 28.71C133.9 29.1133 133.702 29.6157 133.702 30.217C133.702 30.8183 133.9 31.3243 134.296 31.735C134.699 32.1383 135.194 32.34 135.781 32.34C136.375 32.34 136.87 32.1383 137.266 31.735C137.662 31.3317 137.86 30.8257 137.86 30.217C137.86 29.6083 137.662 29.1023 137.266 28.699C136.87 28.2957 136.375 28.094 135.781 28.094C135.194 28.094 134.699 28.2993 134.296 28.71ZM143.658 30.151C143.966 30.2683 144.201 30.4443 144.362 30.679C144.531 30.9137 144.615 31.185 144.615 31.493C144.615 31.9257 144.45 32.285 144.12 32.571C143.79 32.857 143.369 33 142.855 33H139.896V27.434H142.591C143.105 27.434 143.53 27.577 143.867 27.863C144.205 28.149 144.373 28.5083 144.373 28.941C144.373 29.4763 144.135 29.8797 143.658 30.151ZM142.558 28.149H140.688V29.865H142.558C142.852 29.865 143.09 29.7843 143.273 29.623C143.464 29.4543 143.559 29.2453 143.559 28.996C143.559 28.754 143.464 28.5523 143.273 28.391C143.09 28.2297 142.852 28.149 142.558 28.149ZM140.688 32.285H142.822C143.108 32.285 143.343 32.2043 143.526 32.043C143.717 31.8817 143.812 31.6763 143.812 31.427C143.812 31.185 143.717 30.9833 143.526 30.822C143.343 30.6533 143.108 30.569 142.822 30.569H140.688V32.285ZM152.907 30.151C153.215 30.2683 153.45 30.4443 153.611 30.679C153.78 30.9137 153.864 31.185 153.864 31.493C153.864 31.9257 153.699 32.285 153.369 32.571C153.039 32.857 152.618 33 152.104 33H149.145V27.434H151.84C152.354 27.434 152.779 27.577 153.116 27.863C153.454 28.149 153.622 28.5083 153.622 28.941C153.622 29.4763 153.384 29.8797 152.907 30.151ZM151.807 28.149H149.937V29.865H151.807C152.101 29.865 152.339 29.7843 152.522 29.623C152.713 29.4543 152.808 29.2453 152.808 28.996C152.808 28.754 152.713 28.5523 152.522 28.391C152.339 28.2297 152.101 28.149 151.807 28.149ZM149.937 32.285H152.071C152.357 32.285 152.592 32.2043 152.775 32.043C152.966 31.8817 153.061 31.6763 153.061 31.427C153.061 31.185 152.966 30.9833 152.775 30.822C152.592 30.6533 152.357 30.569 152.071 30.569H149.937V32.285ZM51.628 43.966C50.8653 43.2033 50.484 42.2647 50.484 41.15C50.484 40.0353 50.8653 39.0967 51.628 38.334C52.398 37.5713 53.3477 37.19 54.477 37.19C55.291 37.19 56.0097 37.4027 56.633 37.828C57.2563 38.246 57.711 38.774 57.997 39.412L57.216 39.742C56.974 39.2213 56.6073 38.7997 56.116 38.477C55.632 38.147 55.0857 37.982 54.477 37.982C53.6043 37.982 52.8673 38.29 52.266 38.906C51.6647 39.5147 51.364 40.2627 51.364 41.15C51.364 42.0373 51.6647 42.789 52.266 43.405C52.8673 44.0137 53.6043 44.318 54.477 44.318C55.0857 44.318 55.632 44.1567 56.116 43.834C56.6073 43.504 56.974 43.0787 57.216 42.558L57.997 42.888C57.711 43.526 57.2563 44.0577 56.633 44.483C56.0097 44.901 55.291 45.11 54.477 45.11C53.3477 45.11 52.398 44.7287 51.628 43.966ZM59.6345 44.285C59.0771 43.7277 58.7985 43.0383 58.7985 42.217C58.7985 41.3957 59.0771 40.71 59.6345 40.16C60.1991 39.6027 60.8958 39.324 61.7245 39.324C62.5531 39.324 63.2461 39.6027 63.8035 40.16C64.3681 40.71 64.6505 41.3957 64.6505 42.217C64.6505 43.0383 64.3681 43.7277 63.8035 44.285C63.2461 44.835 62.5531 45.11 61.7245 45.11C60.8958 45.11 60.1991 44.835 59.6345 44.285ZM60.2395 40.71C59.8435 41.1133 59.6455 41.6157 59.6455 42.217C59.6455 42.8183 59.8435 43.3243 60.2395 43.735C60.6428 44.1383 61.1378 44.34 61.7245 44.34C62.3185 44.34 62.8135 44.1383 63.2095 43.735C63.6055 43.3317 63.8035 42.8257 63.8035 42.217C63.8035 41.6083 63.6055 41.1023 63.2095 40.699C62.8135 40.2957 62.3185 40.094 61.7245 40.094C61.1378 40.094 60.6428 40.2993 60.2395 40.71ZM65.731 42.723V39.434H66.556V42.723C66.556 43.1997 66.71 43.5883 67.018 43.889C67.326 44.1897 67.7147 44.34 68.184 44.34C68.6534 44.34 69.042 44.1897 69.35 43.889C69.658 43.5883 69.812 43.1997 69.812 42.723V39.434H70.637V42.723C70.637 43.427 70.406 44.0027 69.944 44.45C69.482 44.89 68.8954 45.11 68.184 45.11C67.4727 45.11 66.886 44.89 66.424 44.45C65.962 44.0027 65.731 43.427 65.731 42.723ZM74.7448 39.324C75.4341 39.324 76.0024 39.5513 76.4498 40.006C76.9044 40.4607 77.1318 41.0327 77.1318 41.722V45H76.3068V41.821C76.3068 41.3223 76.1418 40.908 75.8118 40.578C75.4818 40.248 75.0674 40.083 74.5688 40.083C74.0774 40.083 73.6631 40.2517 73.3258 40.589C72.9958 40.919 72.8308 41.3297 72.8308 41.821V45H72.0058V39.434H72.8308V40.303C73.2781 39.6503 73.9161 39.324 74.7448 39.324ZM79.0287 40.182H77.7747V39.434H79.0287V37.443L79.8537 37.19V39.434H81.5477V40.182H79.8537V43.108C79.8537 43.5187 79.9417 43.812 80.1177 43.988C80.2937 44.164 80.5834 44.252 80.9867 44.252H81.5477V45H80.9867C80.3194 45 79.8244 44.8423 79.5017 44.527C79.1864 44.2117 79.0287 43.7277 79.0287 43.075V40.182ZM85.1196 39.324C85.9776 39.324 86.6816 39.6283 87.2316 40.237C87.789 40.8383 88.0346 41.5827 87.9686 42.47H83.0736C83.1323 43.0273 83.356 43.4857 83.7446 43.845C84.1406 44.197 84.621 44.373 85.1856 44.373C85.6183 44.373 86.0033 44.2667 86.3406 44.054C86.678 43.8413 86.9346 43.5517 87.1106 43.185L87.8146 43.482C87.58 43.9733 87.2316 44.3693 86.7696 44.67C86.3076 44.9633 85.776 45.11 85.1746 45.11C84.346 45.11 83.6493 44.835 83.0846 44.285C82.5273 43.7277 82.2486 43.0383 82.2486 42.217C82.2486 41.3957 82.5236 40.71 83.0736 40.16C83.6236 39.6027 84.3056 39.324 85.1196 39.324ZM85.1196 40.061C84.6136 40.061 84.1736 40.2223 83.7996 40.545C83.4256 40.8677 83.191 41.282 83.0956 41.788H87.1326C87.052 41.2893 86.8246 40.8787 86.4506 40.556C86.084 40.226 85.6403 40.061 85.1196 40.061ZM90.0075 39.434V40.325C90.2495 39.9583 90.5685 39.687 90.9645 39.511C91.3678 39.335 91.8042 39.2873 92.2735 39.368V40.171C91.6502 40.0317 91.1148 40.127 90.6675 40.457C90.2275 40.7797 90.0075 41.2343 90.0075 41.821V45H89.1825V39.434H90.0075ZM94.9929 42.58H92.5289V41.843H94.9929V42.58ZM96.0327 43.02L96.8907 42.844C96.964 43.3207 97.173 43.691 97.5177 43.955C97.8697 44.2117 98.3317 44.34 98.9037 44.34C99.4463 44.34 99.8863 44.2153 100.224 43.966C100.561 43.7167 100.73 43.3977 100.73 43.009C100.73 42.723 100.645 42.481 100.477 42.283C100.315 42.085 100.103 41.931 99.8387 41.821C99.5747 41.711 99.2813 41.6157 98.9587 41.535C98.6433 41.447 98.3243 41.3517 98.0017 41.249C97.679 41.139 97.3857 41.0107 97.1217 40.864C96.8577 40.7173 96.6413 40.5083 96.4727 40.237C96.3113 39.9657 96.2307 39.6393 96.2307 39.258C96.2307 38.664 96.4727 38.1727 96.9567 37.784C97.448 37.388 98.064 37.19 98.8047 37.19C99.5453 37.19 100.158 37.3843 100.642 37.773C101.133 38.1617 101.426 38.664 101.522 39.28L100.653 39.456C100.587 39.0087 100.385 38.6457 100.048 38.367C99.7177 38.0883 99.2997 37.949 98.7937 37.949C98.3023 37.949 97.899 38.07 97.5837 38.312C97.2683 38.554 97.1107 38.8583 97.1107 39.225C97.1107 39.5037 97.1913 39.7383 97.3527 39.929C97.5213 40.1123 97.7377 40.2553 98.0017 40.358C98.2657 40.4533 98.559 40.545 98.8817 40.633C99.2043 40.7137 99.5233 40.809 99.8387 40.919C100.161 41.0217 100.455 41.15 100.719 41.304C100.983 41.458 101.195 41.678 101.357 41.964C101.525 42.2427 101.61 42.5837 101.61 42.987C101.61 43.603 101.349 44.1127 100.829 44.516C100.308 44.912 99.659 45.11 98.8817 45.11C98.097 45.11 97.448 44.923 96.9347 44.549C96.4213 44.175 96.1207 43.6653 96.0327 43.02ZM103.51 40.182H102.256V39.434H103.51V37.443L104.335 37.19V39.434H106.029V40.182H104.335V43.108C104.335 43.5187 104.423 43.812 104.599 43.988C104.775 44.164 105.065 44.252 105.468 44.252H106.029V45H105.468C104.801 45 104.306 44.8423 103.983 44.527C103.668 44.2117 103.51 43.7277 103.51 43.075V40.182ZM108.044 39.434V40.325C108.286 39.9583 108.605 39.687 109.001 39.511C109.404 39.335 109.84 39.2873 110.31 39.368V40.171C109.686 40.0317 109.151 40.127 108.704 40.457C108.264 40.7797 108.044 41.2343 108.044 41.821V45H107.219V39.434H108.044ZM111.115 37.784C111.115 37.63 111.167 37.5017 111.269 37.399C111.372 37.2963 111.5 37.245 111.654 37.245C111.801 37.245 111.926 37.2963 112.028 37.399C112.138 37.5017 112.193 37.63 112.193 37.784C112.193 37.9307 112.138 38.0553 112.028 38.158C111.926 38.2607 111.801 38.312 111.654 38.312C111.5 38.312 111.372 38.2607 111.269 38.158C111.167 38.0553 111.115 37.9307 111.115 37.784ZM112.061 45H111.236V39.434H112.061V45ZM115.902 41.733L118.542 45H117.475L115.341 42.338L114.296 43.449V45H113.471V36.86H114.296V42.371L117.002 39.434H118.058L115.902 41.733ZM121.525 39.324C122.383 39.324 123.087 39.6283 123.637 40.237C124.194 40.8383 124.44 41.5827 124.374 42.47H119.479C119.538 43.0273 119.761 43.4857 120.15 43.845C120.546 44.197 121.026 44.373 121.591 44.373C122.024 44.373 122.409 44.2667 122.746 44.054C123.083 43.8413 123.34 43.5517 123.516 43.185L124.22 43.482C123.985 43.9733 123.637 44.3693 123.175 44.67C122.713 44.9633 122.181 45.11 121.58 45.11C120.751 45.11 120.055 44.835 119.49 44.285C118.933 43.7277 118.654 43.0383 118.654 42.217C118.654 41.3957 118.929 40.71 119.479 40.16C120.029 39.6027 120.711 39.324 121.525 39.324ZM121.525 40.061C121.019 40.061 120.579 40.2223 120.205 40.545C119.831 40.8677 119.596 41.282 119.501 41.788H123.538C123.457 41.2893 123.23 40.8787 122.856 40.556C122.489 40.226 122.046 40.061 121.525 40.061ZM132.747 41.7L130.14 44.219H134.155V45H128.908V44.307L132.186 41.106C132.772 40.5193 133.066 39.951 133.066 39.401C133.066 38.9757 132.923 38.6347 132.637 38.378C132.358 38.114 131.988 37.982 131.526 37.982C130.976 37.982 130.55 38.1433 130.25 38.466C129.949 38.7887 129.799 39.225 129.799 39.775H128.93C128.93 38.9977 129.161 38.3743 129.623 37.905C130.092 37.4283 130.734 37.19 131.548 37.19C132.266 37.19 132.846 37.3917 133.286 37.795C133.726 38.191 133.946 38.7227 133.946 39.39C133.946 40.1673 133.546 40.9373 132.747 41.7Z" fill="white"/>
<path d="M1.57355 43.5952C0.880366 44.4561 1.02718 45.718 1.89949 46.3968C2.24676 46.667 2.67421 46.8137 3.11422 46.8137L8.92163 46.8137L13.6437 46.8137C14.2468 46.8137 14.8177 46.5415 15.1975 46.073L44.7376 9.62499C45.4309 8.76956 45.3023 7.51463 44.45 6.81754L44.3381 6.72602C43.9808 6.43382 43.5335 6.27419 43.0719 6.27419L38.5155 6.27419L32.5811 6.27419C31.9758 6.27419 31.403 6.54837 31.0233 7.01988L1.57355 43.5952Z" fill="white"/>
<path d="M40.9471 8.50001L36.7453 8.35746L33.7575 8.25609L4.86553 44.0429L8.6004 44.1696L12.0551 44.2868L40.9471 8.50001Z" fill="black"/>
<path d="M1.36939 9.2202C0.676203 8.35929 0.823014 7.09738 1.69533 6.4186C2.04259 6.14838 2.47005 6.00167 2.91006 6.00167L8.71746 6.00167L13.4396 6.00167C14.0427 6.00167 14.6136 6.27383 14.9933 6.74238L44.5334 43.1904C45.2267 44.0458 45.0982 45.3007 44.2458 45.9978L44.1339 46.0894C43.7766 46.3815 43.3293 46.5412 42.8677 46.5412L38.3113 46.5412L32.377 46.5412C31.7716 46.5412 31.1988 46.267 30.8192 45.7955L1.36939 9.2202Z" fill="white"/>
<path d="M4.86556 8.50001L9.06728 8.35746L12.0552 8.25609L40.9471 44.0429L37.2122 44.1696L33.7575 44.2868L4.86556 8.50001Z" fill="black"/>
</svg>
